<?xml version="1.0" standalone="no"?>
<!DOCTYPE svg PUBLIC "-//W3C//DTD SVG 20010904//EN"
 "http://www.w3.org/TR/2001/REC-SVG-20010904/DTD/svg10.dtd">
<svg version="1.0" xmlns="http://www.w3.org/2000/svg"
 width="460.000000pt" height="460.000000pt" viewBox="0 0 460.000000 460.000000"
 preserveAspectRatio="xMidYMid meet">
<metadata>
Created by potrace 1.11, written by Peter Selinger 2001-2013
</metadata>
<g transform="translate(0.000000,460.000000) scale(0.100000,-0.100000)"
fill="#000000" stroke="none">
<path d="M1728 3728 l-3 -93 -92 -3 -93 -3 0 -184 0 -185 -90 0 -90 0 0 -285
0 -285 185 0 185 0 0 90 0 90 193 2 192 3 3 103 3 102 -106 0 -105 0 0 90 0
89 103 3 102 3 3 93 3 92 194 0 195 0 0 -185 0 -185 90 0 90 0 0 -100 0 -100
-90 0 -90 0 0 -95 0 -95 365 0 365 0 0 95 0 95 -180 0 -180 0 0 100 0 100 -95
0 -95 0 0 185 0 185 285 0 285 0 0 90 0 90 -285 0 -285 0 0 95 0 95 -480 0
-479 0 -3 -92z m-8 -658 l0 -190 -90 0 -90 0 0 190 0 190 90 0 90 0 0 -190z"/>
<path d="M1638 2483 l-98 -4 0 -89 0 -90 -90 0 -89 0 -3 -92 -3 -93 -102 -3
-103 -3 0 -89 0 -90 195 0 195 0 0 -105 0 -105 90 0 90 0 0 -90 0 -90 -90 0
-90 0 0 -195 0 -195 -90 0 -89 0 -3 -92 -3 -93 -102 -3 -103 -3 0 -89 0 -90
380 0 380 0 0 195 0 195 100 0 99 0 3 93 3 92 195 0 195 0 3 -92 3 -93 89 0
90 0 0 -195 0 -195 380 0 380 0 0 90 0 90 -82 0 c-132 0 -128 -3 -128 101 l0
89 -90 0 -90 0 0 195 0 195 -90 0 -90 0 0 90 0 90 90 0 90 0 0 105 0 105 195
0 195 0 0 90 0 90 -82 0 c-132 0 -128 -3 -128 101 l0 89 -275 0 -275 0 0 95 0
95 -477 -2 c-263 -1 -522 -4 -575 -5z m472 -653 l0 -100 -100 0 -100 0 0 100
0 100 100 0 100 0 0 -100z m580 0 l0 -100 -90 0 -90 0 0 100 0 100 90 0 90 0
0 -100z"/>
</g>
</svg>
